# xmcd CD database file
#
# Track frame offsets:
#	150
#	15758
#	34687
#	50726
#	58985
#	72688
#	90988
#	105500
#	119197
#	138094
#	153356
#	170325
#
# Disc length: 2591 seconds
#
# Revision: 1
# Processed by: cddbd v1.5.2PL0 Copyright (c) Steve Scherf et al.
# Submitted via: CDex 1.70beta2
#
DISCID=9e0a1d0c
DTITLE=Wild Nothing - Gemini
DYEAR=2010
DGENRE=A Cappella
TTITLE0=Live In Dreams
TTITLE1=Summer Holiday
TTITLE2=Drifter
TTITLE3=Pessimist
TTITLE4=O, Lilac
TTITLE5=Bored Games
TTITLE6=Confirmation
TTITLE7=My Angel Lonely
TTITLE8=The Witching Hour
TTITLE9=Chinatown
TTITLE10=Our Composition Book
TTITLE11=Gemini
EXTD=YEAR: 2010
EXTT0=
EXTT1=
EXTT2=
EXTT3=
EXTT4=
EXTT5=
EXTT6=
EXTT7=
EXTT8=
EXTT9=
EXTT10=
EXTT11=
PLAYORDER=
